<?xml version="1.0" standalone="no"?>
<!DOCTYPE svg PUBLIC "-//W3C//DTD SVG 20010904//EN"
 "http://www.w3.org/TR/2001/REC-SVG-20010904/DTD/svg10.dtd">
<svg version="1.0" xmlns="http://www.w3.org/2000/svg"
 width="500.000000pt" height="500.000000pt" viewBox="0 0 500.000000 500.000000"
 preserveAspectRatio="xMidYMid meet">
<metadata>
Created by potrace 1.11, written by Peter Selinger 2001-2013
</metadata>
<g transform="translate(0.000000,500.000000) scale(0.100000,-0.100000)"
fill="#000000" stroke="none">
<path d="M822 4984 c-115 -20 -180 -42 -276 -92 -228 -117 -411 -325 -490
-556 -58 -168 -56 -85 -53 -1866 l2 -1635 26 -96 c94 -340 350 -597 704 -706
l90 -28 1665 0 1665 0 80 22 c121 32 185 59 279 116 152 92 285 231 370 387
39 73 91 220 103 295 10 63 11 3272 1 3340 -4 28 -13 66 -18 85 -6 19 -13 42
-15 52 -9 42 -58 147 -102 221 -56 93 -198 244 -288 304 -95 64 -201 113 -304
141 l-96 27 -1635 1 c-1320 1 -1649 -1 -1708 -12z"/>
</g>
</svg>
